<svg width="27" height="27" viewBox="0 0 27 27" fill="none" xmlns="http://www.w3.org/2000/svg">
<path d="M25.3797 24.55H20.2997C22.9488 22.881 24.9062 20.3115 25.8118 17.3142C26.7173 14.317 26.5101 11.0935 25.2283 8.23684C23.9465 5.38017 21.6763 3.08242 18.8352 1.76626C15.9942 0.450111 12.7735 0.204083 9.76554 1.07344C6.75757 1.94279 4.16468 3.86906 2.46383 6.49789C0.762982 9.12672 0.0685779 12.2813 0.508355 15.3813C0.948133 18.4814 2.49251 21.3184 4.8574 23.3704C7.22229 25.4225 10.2486 26.5516 13.3797 26.55H25.3797C25.6449 26.55 25.8993 26.4447 26.0868 26.2571C26.2743 26.0696 26.3797 25.8153 26.3797 25.55C26.3797 25.2848 26.2743 25.0305 26.0868 24.8429C25.8993 24.6554 25.6449 24.55 25.3797 24.55ZM2.3797 13.55C2.3797 11.3744 3.02484 9.24771 4.23353 7.43877C5.44223 5.62982 7.16019 4.21993 9.17018 3.38736C11.1802 2.5548 13.3919 2.33696 15.5257 2.7614C17.6595 3.18584 19.6195 4.23349 21.1579 5.77186C22.6963 7.31024 23.7439 9.27025 24.1683 11.404C24.5928 13.5378 24.3749 15.7496 23.5424 17.7596C22.7098 19.7695 21.2999 21.4875 19.491 22.6962C17.682 23.9049 15.5553 24.55 13.3797 24.55C10.4633 24.5467 7.66736 23.3867 5.60518 21.3246C3.54299 19.2624 2.38301 16.4664 2.3797 13.55ZM13.3797 10.55C13.973 10.55 14.5531 10.3741 15.0464 10.0444C15.5398 9.7148 15.9243 9.24627 16.1513 8.69809C16.3784 8.14991 16.4378 7.54671 16.3221 6.96477C16.2063 6.38282 15.9206 5.84828 15.501 5.42872C15.0815 5.00916 14.5469 4.72344 13.965 4.60768C13.383 4.49193 12.7798 4.55134 12.2316 4.7784C11.6835 5.00546 11.2149 5.38998 10.8853 5.88333C10.5556 6.37667 10.3797 6.95669 10.3797 7.55004C10.3797 8.34569 10.6958 9.10875 11.2584 9.67136C11.821 10.234 12.584 10.55 13.3797 10.55ZM13.3797 6.55004C13.5775 6.55004 13.7708 6.60869 13.9353 6.71857C14.0997 6.82845 14.2279 6.98463 14.3036 7.16735C14.3793 7.35008 14.3991 7.55115 14.3605 7.74513C14.3219 7.93911 14.2267 8.11729 14.0868 8.25714C13.947 8.397 13.7688 8.49224 13.5748 8.53082C13.3808 8.56941 13.1797 8.5496 12.997 8.47392C12.8143 8.39823 12.6581 8.27006 12.5482 8.10561C12.4383 7.94116 12.3797 7.74782 12.3797 7.55004C12.3797 7.28482 12.4851 7.03047 12.6726 6.84293C12.8601 6.6554 13.1145 6.55004 13.3797 6.55004ZM16.3797 19.55C16.3797 18.9567 16.2038 18.3767 15.8741 17.8833C15.5445 17.39 15.0759 17.0055 14.5277 16.7784C13.9796 16.5513 13.3764 16.4919 12.7944 16.6077C12.2125 16.7234 11.6779 17.0092 11.2584 17.4287C10.8388 17.8483 10.5531 18.3828 10.4373 18.9648C10.3216 19.5467 10.381 20.1499 10.6081 20.6981C10.8351 21.2463 11.2196 21.7148 11.713 22.0444C12.2063 22.3741 12.7864 22.55 13.3797 22.55C14.1753 22.55 14.9384 22.234 15.501 21.6714C16.0636 21.1087 16.3797 20.3457 16.3797 19.55ZM12.3797 19.55C12.3797 19.3523 12.4383 19.1589 12.5482 18.9945C12.6581 18.83 12.8143 18.7018 12.997 18.6262C13.1797 18.5505 13.3808 18.5307 13.5748 18.5693C13.7688 18.6078 13.947 18.7031 14.0868 18.8429C14.2267 18.9828 14.3219 19.161 14.3605 19.3549C14.3991 19.5489 14.3793 19.75 14.3036 19.9327C14.2279 20.1154 14.0997 20.2716 13.9353 20.3815C13.7708 20.4914 13.5775 20.55 13.3797 20.55C13.1145 20.55 12.8601 20.4447 12.6726 20.2571C12.4851 20.0696 12.3797 19.8153 12.3797 19.55ZM19.3797 16.55C19.973 16.55 20.5531 16.3741 21.0464 16.0444C21.5398 15.7148 21.9243 15.2463 22.1513 14.6981C22.3784 14.1499 22.4378 13.5467 22.3221 12.9648C22.2063 12.3828 21.9206 11.8483 21.501 11.4287C21.0815 11.0092 20.5469 10.7234 19.965 10.6077C19.383 10.4919 18.7798 10.5513 18.2316 10.7784C17.6835 11.0055 17.2149 11.39 16.8853 11.8833C16.5556 12.3767 16.3797 12.9567 16.3797 13.55C16.3797 14.3457 16.6958 15.1087 17.2584 15.6714C17.821 16.234 18.5841 16.55 19.3797 16.55ZM19.3797 12.55C19.5775 12.55 19.7708 12.6087 19.9353 12.7186C20.0997 12.8284 20.2279 12.9846 20.3036 13.1674C20.3793 13.3501 20.3991 13.5511 20.3605 13.7451C20.3219 13.9391 20.2267 14.1173 20.0868 14.2571C19.947 14.397 19.7688 14.4922 19.5748 14.5308C19.3808 14.5694 19.1797 14.5496 18.997 14.4739C18.8143 14.3982 18.6581 14.2701 18.5482 14.1056C18.4383 13.9412 18.3797 13.7478 18.3797 13.55C18.3797 13.2848 18.4851 13.0305 18.6726 12.8429C18.8601 12.6554 19.1145 12.55 19.3797 12.55ZM7.3797 10.55C6.78636 10.55 6.20634 10.726 5.71299 11.0556C5.21964 11.3853 4.83512 11.8538 4.60806 12.402C4.381 12.9502 4.32159 13.5534 4.43734 14.1353C4.5531 14.7173 4.83882 15.2518 5.25838 15.6714C5.67794 16.0909 6.21248 16.3766 6.79443 16.4924C7.37637 16.6081 7.97957 16.5487 8.52775 16.3217C9.07593 16.0946 9.54446 15.7101 9.87411 15.2167C10.2038 14.7234 10.3797 14.1434 10.3797 13.55C10.3797 12.7544 10.0636 11.9913 9.50102 11.4287C8.93841 10.8661 8.17535 10.55 7.3797 10.55ZM7.3797 14.55C7.18192 14.55 6.98858 14.4914 6.82413 14.3815C6.65968 14.2716 6.53151 14.1154 6.45582 13.9327C6.38013 13.75 6.36033 13.5489 6.39891 13.3549C6.4375 13.161 6.53274 12.9828 6.67259 12.8429C6.81244 12.7031 6.99063 12.6078 7.18461 12.5693C7.37859 12.5307 7.57966 12.5505 7.76238 12.6262C7.94511 12.7018 8.10129 12.83 8.21117 12.9945C8.32105 13.1589 8.3797 13.3523 8.3797 13.55C8.3797 13.8153 8.27434 14.0696 8.08681 14.2571C7.89927 14.4447 7.64492 14.55 7.3797 14.55Z" fill="white"/>
</svg>
